<svg width="145" height="145" viewBox="0 0 145 145" fill="none" xmlns="http://www.w3.org/2000/svg">
<path d="M0 72.4999C0 112.321 32.6788 145 72.5 145C112.321 145 145 112.321 145 72.4999C145 35.5941 116.931 4.82323 81.1215 0.515342C76.3852 -0.054436 72.5 3.86709 72.5 8.63756C72.5 13.408 76.392 17.2042 81.1046 17.9447C107.483 22.0894 127.725 44.9761 127.725 72.4999C127.725 102.95 102.95 127.724 72.5 127.724C42.05 127.724 17.2754 102.95 17.2754 72.4999C17.2754 61.9604 20.2434 52.1009 25.3875 43.7133C27.8902 39.6325 27.4868 34.1786 23.8038 31.1205C20.1862 28.1168 14.7768 28.5581 12.1656 32.4685C4.48848 43.9646 0 57.7417 0 72.4999Z" fill="url(#paint0_linear_11814_232)"/>
<path d="M70.7451 129.745C101.673 129.745 126.745 104.673 126.745 73.7455C126.745 42.8175 101.673 17.7455 70.7451 17.7455C58.8315 17.7455 47.7868 21.4658 38.7093 27.808C30.7213 31.9538 14.7451 46.9455 14.7451 73.7455C14.7451 104.673 39.8172 129.745 70.7451 129.745Z" fill="#F4F7FA"/>
<path d="M42.5168 90.8895C41.5808 90.8895 40.8008 90.5735 40.1768 89.9415C39.5528 89.3015 39.2408 88.5255 39.2408 87.6135V87.5895C39.2408 86.6775 39.5528 85.8975 40.1768 85.2495C40.8088 84.6015 41.5928 84.2775 42.5288 84.2775C43.5528 84.2775 44.3968 84.6415 45.0608 85.3695L44.1608 86.3415C43.6568 85.8135 43.1088 85.5495 42.5168 85.5495C41.9968 85.5495 41.5608 85.7455 41.2088 86.1375C40.8648 86.5295 40.6928 87.0055 40.6928 87.5655V87.5895C40.6928 88.1655 40.8688 88.6495 41.2208 89.0415C41.5808 89.4335 42.0368 89.6295 42.5888 89.6295C43.1728 89.6295 43.7208 89.3655 44.2328 88.8375L45.1088 89.7015C44.7648 90.0855 44.3888 90.3815 43.9808 90.5895C43.5808 90.7895 43.0928 90.8895 42.5168 90.8895ZM49.9833 90.7455V84.4095H51.4233V87.4455L54.1833 84.4095H55.8873L53.4273 87.0735L56.0913 90.7455H54.3753L52.4553 88.1295L51.4233 89.2215V90.7455H49.9833ZM62.4126 90.7455H60.9726V89.9655C60.4606 90.5735 59.7766 90.8775 58.9206 90.8775C58.2886 90.8775 57.7526 90.7055 57.3126 90.3615C56.8806 90.0095 56.6646 89.5215 56.6646 88.8975C56.6646 88.2175 56.9006 87.7015 57.3726 87.3495C57.8446 86.9975 58.4646 86.8215 59.2326 86.8215C59.8486 86.8215 60.4326 86.9095 60.9846 87.0855V86.9655C60.9846 86.5255 60.8486 86.1895 60.5766 85.9575C60.3126 85.7255 59.9286 85.6095 59.4246 85.6095C58.8486 85.6095 58.2446 85.7415 57.6126 86.0055L57.2166 84.8415C58.0006 84.4895 58.8046 84.3135 59.6286 84.3135C60.5486 84.3135 61.2406 84.5455 61.7046 85.0095C62.1766 85.4735 62.4126 86.1335 62.4126 86.9895V90.7455ZM61.0086 88.4535V88.0935C60.5766 87.9255 60.0926 87.8415 59.5566 87.8415C59.1006 87.8415 58.7446 87.9295 58.4886 88.1055C58.2326 88.2815 58.1046 88.5295 58.1046 88.8495C58.1046 89.1375 58.2206 89.3655 58.4526 89.5335C58.6846 89.7015 58.9766 89.7855 59.3286 89.7855C59.8166 89.7855 60.2166 89.6615 60.5286 89.4135C60.8486 89.1655 61.0086 88.8455 61.0086 88.4535ZM63.3355 90.7455L65.8195 87.0735L63.4315 84.4095H65.1235L67.7515 87.5175V84.4095H69.2035V87.5175L71.8435 84.4095H73.5355L71.1475 87.0735L73.6195 90.7455H71.9875L70.1755 88.0455L69.2035 89.1495V90.7455H67.7515V89.1495L66.7795 88.0455L64.9675 90.7455H63.3355ZM73.9075 92.2695V89.4975H74.5915C75.0635 88.5535 75.2995 87.1175 75.2995 85.1895V84.4095H80.2075V89.4975H81.1075L80.9155 92.2695H79.7035V90.7455H75.2635L75.1195 92.2695H73.9075ZM76.0795 89.4975H78.7555V85.6575H76.6675V86.4975C76.6675 87.6735 76.4715 88.6735 76.0795 89.4975ZM85.3273 90.8895C84.3673 90.8895 83.5673 90.5695 82.9273 89.9295C82.2873 89.2895 81.9673 88.5095 81.9673 87.5895C81.9673 86.6695 82.2913 85.8895 82.9393 85.2495C83.5873 84.6015 84.3913 84.2775 85.3513 84.2775C86.3113 84.2775 87.1113 84.5975 87.7513 85.2375C88.3993 85.8775 88.7233 86.6615 88.7233 87.5895C88.7233 88.5015 88.3993 89.2815 87.7513 89.9295C87.1033 90.5695 86.2953 90.8895 85.3273 90.8895ZM85.3513 89.6295C85.9273 89.6295 86.3913 89.4335 86.7433 89.0415C87.0953 88.6495 87.2713 88.1655 87.2713 87.5895C87.2713 87.0215 87.0873 86.5415 86.7193 86.1495C86.3513 85.7495 85.8873 85.5495 85.3273 85.5495C84.7593 85.5495 84.2993 85.7455 83.9473 86.1375C83.5953 86.5295 83.4193 87.0135 83.4193 87.5895C83.4193 88.1495 83.6033 88.6295 83.9713 89.0295C84.3393 89.4295 84.7993 89.6295 85.3513 89.6295ZM90.202 90.7455V84.4095H94.69V85.6575H91.654V90.7455H90.202ZM98.8508 90.8895C97.8908 90.8895 97.0908 90.5695 96.4508 89.9295C95.8108 89.2895 95.4908 88.5095 95.4908 87.5895C95.4908 86.6695 95.8148 85.8895 96.4628 85.2495C97.1108 84.6015 97.9148 84.2775 98.8748 84.2775C99.8348 84.2775 100.635 84.5975 101.275 85.2375C101.923 85.8775 102.247 86.6615 102.247 87.5895C102.247 88.5015 101.923 89.2815 101.275 89.9295C100.627 90.5695 99.8188 90.8895 98.8508 90.8895ZM98.8748 89.6295C99.4508 89.6295 99.9148 89.4335 100.267 89.0415C100.619 88.6495 100.795 88.1655 100.795 87.5895C100.795 87.0215 100.611 86.5415 100.243 86.1495C99.8748 85.7495 99.4108 85.5495 98.8508 85.5495C98.2828 85.5495 97.8228 85.7455 97.4708 86.1375C97.1188 86.5295 96.9428 87.0135 96.9428 87.5895C96.9428 88.1495 97.1268 88.6295 97.4948 89.0295C97.8628 89.4295 98.3228 89.6295 98.8748 89.6295ZM49.5145 104.745V98.4095H55.1665V104.745H53.7145V99.6575H50.9665V104.745H49.5145ZM60.0031 104.889C59.0431 104.889 58.2431 104.569 57.6031 103.929C56.9631 103.289 56.6431 102.509 56.6431 101.589C56.6431 100.669 56.9671 99.8895 57.6151 99.2495C58.2631 98.6015 59.0671 98.2775 60.0271 98.2775C60.9871 98.2775 61.7871 98.5975 62.4271 99.2375C63.0751 99.8775 63.3991 100.661 63.3991 101.589C63.3991 102.501 63.0751 103.281 62.4271 103.929C61.7791 104.569 60.9711 104.889 60.0031 104.889ZM60.0271 103.629C60.6031 103.629 61.0671 103.433 61.4191 103.041C61.7711 102.649 61.9471 102.165 61.9471 101.589C61.9471 101.021 61.7631 100.541 61.3951 100.149C61.0271 99.7495 60.5631 99.5495 60.0031 99.5495C59.4351 99.5495 58.9751 99.7455 58.6231 100.137C58.2711 100.529 58.0951 101.013 58.0951 101.589C58.0951 102.149 58.2791 102.629 58.6471 103.029C59.0151 103.429 59.4751 103.629 60.0271 103.629ZM64.8298 104.817C64.5978 104.817 64.3138 104.789 63.9778 104.733L64.0858 103.545C64.2138 103.577 64.3538 103.593 64.5058 103.593C64.6738 103.593 64.8098 103.569 64.9138 103.521C65.0258 103.473 65.1378 103.353 65.2498 103.161C65.3698 102.961 65.4618 102.681 65.5258 102.321C65.5898 101.961 65.6418 101.457 65.6818 100.809C65.7218 100.153 65.7418 99.3535 65.7418 98.4095H70.5298V104.745H69.0778V99.6575H67.0978C67.0978 100.561 67.0618 101.329 66.9898 101.961C66.9178 102.593 66.8218 103.093 66.7018 103.461C66.5898 103.829 66.4298 104.117 66.2218 104.325C66.0218 104.525 65.8178 104.657 65.6098 104.721C65.4018 104.785 65.1418 104.817 64.8298 104.817ZM72.3544 104.745V98.4095H73.7704V102.657C75.0984 100.769 76.0984 99.3535 76.7704 98.4095H78.1384V104.745H76.7344V100.521L73.7224 104.745H72.3544ZM82.8879 104.889C81.9519 104.889 81.1719 104.573 80.5479 103.941C79.9239 103.301 79.6119 102.525 79.6119 101.613V101.589C79.6119 100.677 79.9239 99.8975 80.5479 99.2495C81.1799 98.6015 81.9639 98.2775 82.8999 98.2775C83.9239 98.2775 84.7679 98.6415 85.4319 99.3695L84.5319 100.341C84.0279 99.8135 83.4799 99.5495 82.8879 99.5495C82.3679 99.5495 81.9319 99.7455 81.5799 100.137C81.2359 100.529 81.0639 101.005 81.0639 101.565V101.589C81.0639 102.165 81.2399 102.649 81.5919 103.041C81.9519 103.433 82.4079 103.629 82.9599 103.629C83.5439 103.629 84.0919 103.365 84.6039 102.837L85.4799 103.701C85.1359 104.085 84.7599 104.381 84.3519 104.589C83.9519 104.789 83.4639 104.889 82.8879 104.889ZM92.0727 104.745H90.6327V103.965C90.1207 104.573 89.4367 104.877 88.5807 104.877C87.9487 104.877 87.4127 104.705 86.9727 104.361C86.5407 104.009 86.3247 103.521 86.3247 102.897C86.3247 102.217 86.5607 101.701 87.0327 101.349C87.5047 100.997 88.1247 100.821 88.8927 100.821C89.5087 100.821 90.0927 100.909 90.6447 101.085V100.965C90.6447 100.525 90.5087 100.189 90.2367 99.9575C89.9727 99.7255 89.5887 99.6095 89.0847 99.6095C88.5087 99.6095 87.9047 99.7415 87.2727 100.005L86.8767 98.8415C87.6607 98.4895 88.4647 98.3135 89.2887 98.3135C90.2087 98.3135 90.9007 98.5455 91.3647 99.0095C91.8367 99.4735 92.0727 100.133 92.0727 100.989V104.745ZM90.6687 102.453V102.093C90.2367 101.925 89.7527 101.841 89.2167 101.841C88.7607 101.841 88.4047 101.929 88.1487 102.105C87.8927 102.281 87.7647 102.529 87.7647 102.849C87.7647 103.137 87.8807 103.365 88.1127 103.533C88.3447 103.701 88.6367 103.785 88.9887 103.785C89.4767 103.785 89.8767 103.661 90.1887 103.413C90.5087 103.165 90.6687 102.845 90.6687 102.453Z" fill="#303030"/>
<path d="M33.9691 76.0495V73.0415H35.0411C35.8411 71.7295 36.2411 69.8201 36.2411 67.3135V65.5855H41.7131V73.0415H43.0251L42.8651 76.0495H42.2251V73.7455H34.7851L34.6251 76.0495H33.9691ZM35.9051 73.0415H40.9291V66.2895H36.9931V67.7615C36.9931 68.8281 36.8918 69.8361 36.6891 70.7855C36.4971 71.7348 36.2358 72.4868 35.9051 73.0415ZM51.6067 72.6735C50.8067 73.5162 49.8094 73.9375 48.6147 73.9375C47.4201 73.9375 46.4227 73.5215 45.6227 72.6895C44.8334 71.8468 44.4387 70.8388 44.4387 69.6655C44.4387 68.5028 44.8387 67.5001 45.6387 66.6575C46.4494 65.8148 47.4521 65.3935 48.6467 65.3935C49.8414 65.3935 50.8334 65.8148 51.6227 66.6575C52.4227 67.4895 52.8227 68.4921 52.8227 69.6655C52.8227 70.8281 52.4174 71.8308 51.6067 72.6735ZM48.6467 73.2015C49.5534 73.2015 50.3321 72.8548 50.9827 72.1615C51.6441 71.4681 51.9747 70.6361 51.9747 69.6655C51.9747 68.6841 51.6441 67.8521 50.9827 67.1695C50.3321 66.4761 49.5427 66.1295 48.6147 66.1295C47.6974 66.1295 46.9134 66.4761 46.2627 67.1695C45.6121 67.8521 45.2867 68.6841 45.2867 69.6655C45.2867 70.6468 45.6121 71.4842 46.2627 72.1775C46.9134 72.8602 47.7081 73.2015 48.6467 73.2015ZM63.294 75.3135V73.7295C61.918 73.6122 60.654 73.0415 59.502 72.0175L60.03 71.3935C61.0647 72.3642 62.1633 72.8975 63.326 72.9935V68.4495C62.1207 68.1828 61.2513 67.8148 60.718 67.3455C60.1953 66.8761 59.934 66.2361 59.934 65.4255C59.934 64.6255 60.2487 63.9535 60.878 63.4095C61.518 62.8548 62.3233 62.5668 63.294 62.5455V61.6175H64.062V62.5775C65.15 62.6628 66.1793 63.1001 67.15 63.8895L66.622 64.5135C65.8327 63.8201 64.9687 63.4148 64.03 63.2975V67.7935C65.246 68.0495 66.126 68.4175 66.67 68.8975C67.214 69.3775 67.486 70.0121 67.486 70.8015C67.486 71.6335 67.166 72.3215 66.526 72.8655C65.8967 73.4095 65.0753 73.7028 64.062 73.7455V75.3135H63.294ZM64.03 73.0255C64.8193 73.0042 65.454 72.7908 65.934 72.3855C66.4247 71.9695 66.67 71.4521 66.67 70.8335C66.67 70.2575 66.4833 69.8041 66.11 69.4735C65.7367 69.1321 65.0433 68.8441 64.03 68.6095V73.0255ZM63.326 67.6335V63.2655C62.558 63.2761 61.934 63.4841 61.454 63.8895C60.9847 64.2948 60.75 64.7961 60.75 65.3935C60.75 65.9481 60.9313 66.4015 61.294 66.7535C61.6567 67.0948 62.334 67.3881 63.326 67.6335ZM69.4194 73.7455V73.1215L73.5954 69.3455C74.5234 68.5028 75.1687 67.8041 75.5314 67.2495C75.894 66.6841 76.0754 66.1081 76.0754 65.5215C76.0754 64.8175 75.8247 64.2415 75.3234 63.7935C74.8327 63.3455 74.2407 63.1215 73.5474 63.1215C72.8647 63.1215 72.2674 63.2921 71.7554 63.6335C71.254 63.9748 70.758 64.4975 70.2674 65.2015L69.6434 64.7855C70.1767 63.9748 70.742 63.3721 71.3394 62.9775C71.9367 62.5828 72.6994 62.3855 73.6274 62.3855C74.5767 62.3855 75.366 62.6841 75.9954 63.2815C76.6354 63.8681 76.9554 64.6041 76.9554 65.4895C76.9554 66.2255 76.7474 66.8975 76.3314 67.5055C75.926 68.1135 75.2007 68.8921 74.1554 69.8415L70.7314 72.9455H77.0674V73.7455H69.4194ZM83.3849 73.9375C82.2329 73.9375 81.2835 73.5642 80.5369 72.8175C80.0462 72.3268 79.6835 71.7508 79.4489 71.0895C79.2249 70.4281 79.1129 69.5375 79.1129 68.4175C79.1129 66.6895 79.5289 65.2495 80.3609 64.0975C81.2035 62.9348 82.3075 62.3535 83.6729 62.3535C84.7715 62.3535 85.8489 62.7855 86.9049 63.6495L86.3769 64.2895C85.4915 63.5001 84.5689 63.1055 83.6089 63.1055C82.5102 63.1055 81.6249 63.6175 80.9529 64.6415C80.2809 65.6655 79.9449 66.9988 79.9449 68.6415V68.9135C80.7555 67.5268 81.9235 66.8335 83.4489 66.8335C84.4942 66.8335 85.3955 67.1588 86.1529 67.8095C86.9209 68.4495 87.3049 69.2655 87.3049 70.2575C87.3049 71.3135 86.9262 72.1935 86.1689 72.8975C85.4222 73.5908 84.4942 73.9375 83.3849 73.9375ZM83.4489 73.1855C84.3342 73.1855 85.0542 72.9028 85.6089 72.3375C86.1635 71.7721 86.4409 71.0788 86.4409 70.2575C86.4409 69.4895 86.1529 68.8495 85.5769 68.3375C85.0115 67.8255 84.2862 67.5695 83.4009 67.5695C82.5155 67.5695 81.7742 67.8521 81.1769 68.4175C80.5795 68.9828 80.2809 69.6335 80.2809 70.3695C80.2809 71.1695 80.5795 71.8415 81.1769 72.3855C81.7849 72.9188 82.5422 73.1855 83.4489 73.1855ZM94.0185 73.9375C92.6318 73.9375 91.5118 73.3775 90.6585 72.2575C89.8158 71.1268 89.3945 69.7561 89.3945 68.1455C89.3945 67.1108 89.5812 66.1561 89.9545 65.2815C90.3278 64.4068 90.8718 63.7028 91.5865 63.1695C92.3118 62.6255 93.1332 62.3535 94.0505 62.3535C95.4372 62.3535 96.5518 62.9188 97.3945 64.0495C98.2478 65.1695 98.6745 66.5348 98.6745 68.1455C98.6745 69.1801 98.4878 70.1348 98.1145 71.0095C97.7412 71.8842 97.1918 72.5935 96.4665 73.1375C95.7518 73.6708 94.9358 73.9375 94.0185 73.9375ZM91.3145 71.6815C92.0185 72.6842 92.9305 73.1855 94.0505 73.1855C95.1705 73.1855 96.0772 72.6895 96.7705 71.6975C97.4638 70.6948 97.8105 69.5108 97.8105 68.1455C97.8105 66.7801 97.4585 65.6015 96.7545 64.6095C96.0505 63.6068 95.1385 63.1055 94.0185 63.1055C92.8985 63.1055 91.9918 63.6015 91.2985 64.5935C90.6052 65.5855 90.2585 66.7695 90.2585 68.1455C90.2585 69.5001 90.6105 70.6788 91.3145 71.6815Z" fill="#303030"/>
<path d="M48.4086 57.9855V55.0735H49.4586C49.9626 54.3735 50.3499 53.4075 50.6206 52.1755C50.8912 50.9341 51.0266 49.5481 51.0266 48.0175V45.9455H57.0326V55.0735H58.3626L58.2226 57.9855H57.6066V55.7455H49.1646L49.0246 57.9855H48.4086ZM50.2986 55.0735H56.3046V46.6175H51.7406V48.5495C51.7406 49.8748 51.6099 51.1301 51.3486 52.3155C51.0966 53.5008 50.7466 54.4201 50.2986 55.0735ZM65.8662 54.8075C65.1662 55.5448 64.2936 55.9135 63.2482 55.9135C62.2029 55.9135 61.3302 55.5495 60.6302 54.8215C59.9396 54.0841 59.5942 53.2021 59.5942 52.1755C59.5942 51.1581 59.9442 50.2808 60.6442 49.5435C61.3536 48.8061 62.2309 48.4375 63.2762 48.4375C64.3216 48.4375 65.1896 48.8061 65.8802 49.5435C66.5802 50.2715 66.9302 51.1488 66.9302 52.1755C66.9302 53.1928 66.5756 54.0701 65.8662 54.8075ZM63.2762 55.2695C64.0696 55.2695 64.7509 54.9662 65.3202 54.3595C65.8989 53.7528 66.1882 53.0248 66.1882 52.1755C66.1882 51.3168 65.8989 50.5888 65.3202 49.9915C64.7509 49.3848 64.0602 49.0815 63.2482 49.0815C62.4456 49.0815 61.7596 49.3848 61.1902 49.9915C60.6209 50.5888 60.3362 51.3168 60.3362 52.1755C60.3362 53.0341 60.6209 53.7668 61.1902 54.3735C61.7596 54.9708 62.4549 55.2695 63.2762 55.2695ZM68.3673 55.7455L71.2933 52.1055L68.4793 48.6055H69.3333L71.7413 51.6295L74.1493 48.6055H74.9753L72.1613 52.0915L75.0873 55.7455H74.2333L71.7133 52.5675L69.1933 55.7455H68.3673ZM82.8057 54.8075C82.1057 55.5448 81.233 55.9135 80.1877 55.9135C79.1423 55.9135 78.2697 55.5495 77.5697 54.8215C76.879 54.0841 76.5337 53.2021 76.5337 52.1755C76.5337 51.1581 76.8837 50.2808 77.5837 49.5435C78.293 48.8061 79.1703 48.4375 80.2157 48.4375C81.261 48.4375 82.129 48.8061 82.8197 49.5435C83.5197 50.2715 83.8697 51.1488 83.8697 52.1755C83.8697 53.1928 83.515 54.0701 82.8057 54.8075ZM80.2157 55.2695C81.009 55.2695 81.6903 54.9662 82.2597 54.3595C82.8383 53.7528 83.1277 53.0248 83.1277 52.1755C83.1277 51.3168 82.8383 50.5888 82.2597 49.9915C81.6903 49.3848 80.9997 49.0815 80.1877 49.0815C79.385 49.0815 78.699 49.3848 78.1297 49.9915C77.5603 50.5888 77.2757 51.3168 77.2757 52.1755C77.2757 53.0341 77.5603 53.7668 78.1297 54.3735C78.699 54.9708 79.3943 55.2695 80.2157 55.2695ZM84.8728 57.7615V55.1295H85.8108C86.5108 53.9815 86.8608 52.3108 86.8608 50.1175V48.6055H91.6488V55.1295H92.7968L92.6568 57.7615H92.0968V55.7455H85.5868L85.4468 57.7615H84.8728ZM86.5668 55.1295H90.9628V49.2215H87.5188V50.5095C87.5188 51.4428 87.4301 52.3248 87.2528 53.1555C87.0848 53.9862 86.8561 54.6442 86.5668 55.1295Z" fill="#303030"/>
<defs>
<linearGradient id="paint0_linear_11814_232" x1="135" y1="25.9999" x2="-19.5" y2="53.4999" gradientUnits="userSpaceOnUse">
<stop stop-color="#4614E8"/>
<stop offset="1" stop-color="#BCA7FF"/>
</linearGradient>
</defs>
</svg>
