<svg width="145.000000" height="145.000015" viewBox="0 0 145 145" fill="none" xmlns="http://www.w3.org/2000/svg" xmlns:xlink="http://www.w3.org/1999/xlink">
	<desc>
			Created with Pixso.
	</desc>
	<defs>
		<linearGradient id="paint_linear_2_32_0" x1="134.999969" y1="25.999939" x2="-19.499998" y2="53.499985" gradientUnits="userSpaceOnUse">
			<stop stop-color="#4614E8"/>
			<stop offset="1.000000" stop-color="#BCA7FF"/>
		</linearGradient>
	</defs>
	<path id="Ellipse 40" d="M126.745 73.7456C126.745 104.674 101.673 129.746 70.7451 129.746C39.8171 129.746 14.7451 104.674 14.7451 73.7456C14.7451 46.9456 30.7213 31.9539 38.7094 27.8081C47.7867 21.4659 58.8314 17.7456 70.7451 17.7456C101.673 17.7456 126.745 42.8177 126.745 73.7456Z" fill="#F4F7FA" fill-opacity="1.000000" fill-rule="evenodd"/>
	<path id="Vector" d="M0 72.5C0 112.321 32.6788 145 72.5 145C112.321 145 145 112.321 145 72.5C145 35.5928 116.929 4.82088 81.1172 0.514954C76.3809 -0.0545349 72.5 3.86723 72.5 8.6377C72.5 13.4082 76.3903 17.2043 81.103 17.9446C107.482 22.0886 127.725 44.9757 127.725 72.5C127.725 102.95 102.95 127.725 72.5 127.725C42.05 127.725 17.2754 102.95 17.2754 72.5C17.2754 61.9606 20.2434 52.101 25.3875 43.7134C27.8903 39.6326 27.4868 34.1788 23.8038 31.1207C20.1863 28.1169 14.7769 28.5583 12.1655 32.4686C4.48853 43.9648 0 57.7419 0 72.5Z" fill="url(#paint_linear_2_32_0)" fill-opacity="1.000000" fill-rule="nonzero"/>
	<path id="с каждого полиса" d="M40.1768 90.3616C40.8008 90.9936 41.5808 91.3096 42.5168 91.3096C43.0928 91.3096 43.5808 91.2096 43.9808 91.0096C44.3888 90.8016 44.7648 90.5056 45.1088 90.1216L44.2328 89.2576C43.7208 89.7856 43.1728 90.0496 42.5888 90.0496C42.0368 90.0496 41.5808 89.8536 41.2208 89.4616C40.8688 89.0696 40.6928 88.5856 40.6928 88.0096L40.6928 87.9856Q40.6928 87.4464 40.9054 87.011Q41.024 86.7681 41.2088 86.5576C41.5608 86.1656 41.9968 85.9696 42.5168 85.9696Q42.6782 85.9696 42.8353 85.9958Q43.5422 86.1136 44.1608 86.7616L45.0608 85.7896C44.3968 85.0616 43.5528 84.6976 42.5288 84.6976Q41.749 84.6976 41.1098 84.9974Q40.5982 85.2374 40.1768 85.6696Q39.7317 86.1318 39.4982 86.6836Q39.2408 87.2921 39.2408 88.0096L39.2408 88.0336Q39.2408 88.766 39.509 89.3814Q39.7419 89.9155 40.1768 90.3616ZM82.9273 90.3496C83.5673 90.9896 84.3673 91.3096 85.3273 91.3096C86.2953 91.3096 87.1033 90.9896 87.7513 90.3496C88.3993 89.7016 88.7233 88.9216 88.7233 88.0096C88.7233 87.0816 88.3993 86.2976 87.7513 85.6576Q87.3673 85.2736 86.9065 85.0432Q86.2153 84.6976 85.3513 84.6976Q84.5174 84.6976 83.8405 85.0235Q83.3485 85.2605 82.9393 85.6696C82.2913 86.3096 81.9673 87.0896 81.9673 88.0096Q81.9673 88.738 82.2348 89.3495Q82.4741 89.8963 82.9273 90.3496ZM96.4508 90.3496C97.0908 90.9896 97.8908 91.3096 98.8508 91.3096Q99.7292 91.3096 100.432 90.9582Q100.891 90.7288 101.275 90.3496C101.923 89.7016 102.247 88.9216 102.247 88.0096C102.247 87.0816 101.923 86.2976 101.275 85.6576C100.635 85.0176 99.8348 84.6976 98.8748 84.6976C97.9148 84.6976 97.1108 85.0216 96.4628 85.6696C95.8148 86.3096 95.4908 87.0896 95.4908 88.0096Q95.4908 88.738 95.7583 89.3495Q95.9975 89.8963 96.4508 90.3496ZM60.9726 91.1656L62.4126 91.1656L62.4126 87.4096Q62.4126 86.2651 61.85 85.5878Q61.7815 85.5052 61.7046 85.4296C61.2406 84.9656 60.5486 84.7336 59.6286 84.7336C58.8046 84.7336 58.0006 84.9096 57.2166 85.2616L57.6126 86.4256C58.2446 86.1616 58.8486 86.0296 59.4246 86.0296Q60.1806 86.0296 60.5766 86.3776C60.8486 86.6096 60.9846 86.9456 60.9846 87.3856L60.9846 87.5056C60.4326 87.3296 59.8486 87.2416 59.2326 87.2416C58.4646 87.2416 57.8446 87.4176 57.3726 87.7696Q57.1426 87.9411 56.9873 88.1646Q56.6646 88.629 56.6646 89.3176Q56.6646 89.9272 56.9394 90.3637Q57.0866 90.5975 57.3126 90.7816C57.7526 91.1256 58.2886 91.2976 58.9206 91.2976C59.7766 91.2976 60.4606 90.9936 60.9726 90.3856L60.9726 91.1656ZM49.9833 84.8296L49.9833 91.1656L51.4233 91.1656L51.4233 89.6416L52.4553 88.5496L54.3753 91.1656L56.0913 91.1656L53.4273 87.4936L55.8873 84.8296L54.1833 84.8296L51.4233 87.8656L51.4233 84.8296L49.9833 84.8296ZM65.8195 87.4936L63.3355 91.1656L64.9675 91.1656L66.7795 88.4656L67.7515 89.5696L67.7515 91.1656L69.2035 91.1656L69.2035 89.5696L70.1755 88.4656L71.9875 91.1656L73.6195 91.1656L71.1475 87.4936L73.5355 84.8296L71.8435 84.8296L69.2035 87.9376L69.2035 84.8296L67.7515 84.8296L67.7515 87.9376L65.1235 84.8296L63.4315 84.8296L65.8195 87.4936ZM73.9075 89.9176L73.9075 92.6896L75.1195 92.6896L75.2635 91.1656L79.7035 91.1656L79.7035 92.6896L80.9155 92.6896L81.1075 89.9176L80.2075 89.9176L80.2075 84.8296L75.2995 84.8296L75.2995 85.6096Q75.2995 88.5016 74.5915 89.9176L73.9075 89.9176ZM90.202 84.8296L90.202 91.1656L91.654 91.1656L91.654 86.0776L94.69 86.0776L94.69 84.8296L90.202 84.8296ZM86.7433 89.4616C86.3913 89.8536 85.9273 90.0496 85.3513 90.0496C84.7993 90.0496 84.3393 89.8496 83.9713 89.4496C83.6033 89.0496 83.4193 88.5696 83.4193 88.0096C83.4193 87.4336 83.5953 86.9496 83.9473 86.5576C84.2993 86.1656 84.7593 85.9696 85.3273 85.9696C85.8873 85.9696 86.3513 86.1696 86.7193 86.5696C87.0873 86.9616 87.2713 87.4416 87.2713 88.0096C87.2713 88.5856 87.0953 89.0696 86.7433 89.4616ZM100.267 89.4616C99.9148 89.8536 99.4508 90.0496 98.8748 90.0496C98.3228 90.0496 97.8628 89.8496 97.4948 89.4496C97.1268 89.0496 96.9428 88.5696 96.9428 88.0096C96.9428 87.4336 97.1188 86.9496 97.4708 86.5576C97.8228 86.1656 98.2828 85.9696 98.8508 85.9696C99.4108 85.9696 99.8748 86.1696 100.243 86.5696Q100.463 86.8043 100.596 87.0812Q100.795 87.4977 100.795 88.0096C100.795 88.5856 100.619 89.0696 100.267 89.4616ZM78.7555 89.9176L76.0795 89.9176Q76.6675 88.6816 76.6675 86.9176L76.6675 86.0776L78.7555 86.0776L78.7555 89.9176ZM61.0086 88.5136L61.0086 88.8736Q61.0086 89.1431 60.9077 89.3673Q60.7885 89.6321 60.5286 89.8336C60.2166 90.0816 59.8166 90.2056 59.3286 90.2056Q58.8053 90.2056 58.4588 89.9581Q58.4557 89.9559 58.4526 89.9536C58.2206 89.7856 58.1046 89.5576 58.1046 89.2696C58.1046 88.9496 58.2326 88.7016 58.4886 88.5256C58.7446 88.3496 59.1006 88.2616 59.5566 88.2616C60.0926 88.2616 60.5766 88.3456 61.0086 88.5136ZM57.6031 104.35C58.2431 104.99 59.0431 105.31 60.0031 105.31C60.9711 105.31 61.7791 104.99 62.4271 104.35C63.0751 103.702 63.3991 102.922 63.3991 102.01C63.3991 101.082 63.0751 100.298 62.4271 99.6576Q62.0431 99.2736 61.5823 99.0432Q60.8911 98.6976 60.0271 98.6976C59.0671 98.6976 58.2631 99.0216 57.6151 99.6696C56.9671 100.31 56.6431 101.09 56.6431 102.01Q56.6431 102.738 56.9106 103.349Q57.1499 103.896 57.6031 104.35ZM80.5479 104.362C81.1719 104.994 81.9519 105.31 82.8878 105.31C83.4639 105.31 83.9519 105.21 84.3519 105.01C84.7599 104.802 85.1358 104.506 85.4799 104.122L84.6039 103.258C84.0919 103.786 83.5439 104.05 82.9599 104.05C82.4079 104.05 81.9519 103.854 81.5919 103.462C81.2399 103.07 81.0639 102.586 81.0639 102.01L81.0639 101.986Q81.0639 101.446 81.2765 101.011Q81.3951 100.768 81.5798 100.558C81.9319 100.166 82.3679 99.9696 82.8878 99.9696Q83.0493 99.9696 83.2064 99.9958Q83.9133 100.114 84.5319 100.762L85.4319 99.7896C84.7679 99.0616 83.9239 98.6976 82.8999 98.6976C81.9639 98.6976 81.1799 99.0216 80.5479 99.6696C79.9239 100.318 79.6118 101.098 79.6118 102.01L79.6118 102.034Q79.6118 102.766 79.8801 103.381Q80.1129 103.916 80.5479 104.362ZM90.6327 105.166L92.0727 105.166L92.0727 101.41C92.0727 100.554 91.8367 99.8936 91.3647 99.4296C90.9007 98.9656 90.2087 98.7336 89.2887 98.7336C88.4647 98.7336 87.6607 98.9096 86.8767 99.2616L87.2727 100.426C87.9047 100.162 88.5087 100.03 89.0847 100.03C89.5887 100.03 89.9727 100.146 90.2367 100.378C90.5087 100.61 90.6447 100.946 90.6447 101.386L90.6447 101.506C90.0927 101.33 89.5087 101.242 88.8927 101.242Q87.7407 101.242 87.0327 101.77C86.5607 102.122 86.3247 102.638 86.3247 103.318C86.3247 103.942 86.5407 104.43 86.9727 104.782C87.4127 105.126 87.9487 105.298 88.5807 105.298C89.4367 105.298 90.1207 104.994 90.6327 104.386L90.6327 105.166ZM49.5145 98.8296L49.5145 105.166L50.9665 105.166L50.9665 100.078L53.7145 100.078L53.7145 105.166L55.1665 105.166L55.1665 98.8296L49.5145 98.8296ZM63.9778 105.154C64.3138 105.21 64.5978 105.238 64.8298 105.238C65.1418 105.238 65.4018 105.206 65.6098 105.142C65.8178 105.078 66.0218 104.946 66.2218 104.746Q66.5338 104.434 66.7018 103.882Q66.8818 103.33 66.9898 102.382Q67.0978 101.434 67.0978 100.078L69.0778 100.078L69.0778 105.166L70.5298 105.166L70.5298 98.8296L65.7418 98.8296Q65.7418 100.246 65.6818 101.23C65.6418 101.878 65.5898 102.382 65.5258 102.742C65.4618 103.102 65.3698 103.382 65.2498 103.582C65.1378 103.774 65.0258 103.894 64.9138 103.942C64.8098 103.99 64.6738 104.014 64.5058 104.014C64.3538 104.014 64.2138 103.998 64.0858 103.966L63.9778 105.154ZM72.3544 98.8296L72.3544 105.166L73.7224 105.166L76.7344 100.942L76.7344 105.166L78.1384 105.166L78.1384 98.8296L76.7704 98.8296C76.0984 99.7736 75.0984 101.19 73.7704 103.078L73.7704 98.8296L72.3544 98.8296ZM61.4191 103.462C61.0671 103.854 60.6031 104.05 60.0271 104.05C59.4751 104.05 59.0151 103.85 58.6471 103.45C58.2791 103.05 58.0951 102.57 58.0951 102.01C58.0951 101.434 58.2711 100.95 58.6231 100.558C58.9751 100.166 59.4351 99.9696 60.0031 99.9696C60.5631 99.9696 61.0271 100.17 61.3951 100.57C61.7631 100.962 61.9471 101.442 61.9471 102.01C61.9471 102.586 61.7711 103.07 61.4191 103.462ZM90.6687 102.514L90.6687 102.874C90.6687 103.266 90.5087 103.586 90.1887 103.834C89.8767 104.082 89.4767 104.206 88.9887 104.206Q88.4655 104.206 88.119 103.958Q88.1159 103.956 88.1127 103.954C87.8807 103.786 87.7647 103.558 87.7647 103.27C87.7647 102.95 87.8927 102.702 88.1487 102.526C88.4047 102.35 88.7607 102.262 89.2167 102.262C89.7527 102.262 90.2367 102.346 90.6687 102.514Z" fill="#303030" fill-opacity="1.000000" fill-rule="evenodd"/>
	<path id="до $260" d="M63.9595 73.2576L63.9595 74.8736L65.6235 74.8736L65.6235 73.2896C66.6582 73.1723 67.4795 72.8363 68.0875 72.2816C68.7062 71.727 69.0155 71.0123 69.0155 70.1376Q69.0155 69.0801 68.5221 68.3612Q68.381 68.1556 68.1995 67.9776C67.6555 67.4336 66.7702 66.9963 65.5435 66.6656L65.5435 64.2496C66.1835 64.4203 66.8448 64.735 67.5275 65.1936L68.5995 63.3216Q67.7968 62.755 66.9049 62.4448Q66.2857 62.2294 65.6235 62.1376L65.6235 61.1776L63.9595 61.1776L63.9595 62.1056C62.9355 62.2123 62.1195 62.543 61.5115 63.0976C60.9035 63.6523 60.5995 64.367 60.5995 65.2416Q60.5995 66.3793 61.1446 67.1109Q61.2664 67.2744 61.4155 67.4176C61.9702 67.9296 62.8448 68.3456 64.0395 68.6656L64.0395 71.2096C63.2182 71.039 62.3488 70.607 61.4315 69.9136L60.1835 71.7376Q60.7783 72.1881 61.4357 72.5114Q62.5996 73.0838 63.9595 73.2576ZM81.984 72.2976C82.784 73.0976 83.8613 73.4976 85.216 73.4976C86.4427 73.4976 87.4613 73.135 88.272 72.4096C89.0827 71.6843 89.488 70.7563 89.488 69.6256Q89.488 68.3811 88.9046 67.5424Q88.6854 67.2274 88.384 66.9696C87.648 66.3403 86.704 66.0256 85.552 66.0256Q85.1466 66.0256 84.7568 66.1036Q83.962 66.2625 83.232 66.7456C83.3173 65.9669 83.5467 65.343 83.92 64.8736Q84.1522 64.5833 84.4521 64.4101Q84.896 64.1536 85.488 64.1536C85.936 64.1536 86.3253 64.2283 86.656 64.3776C86.9973 64.5163 87.3707 64.7403 87.776 65.0496L89.072 63.1456C88.0373 62.3243 86.8693 61.9136 85.568 61.9136Q83.9603 61.9136 82.8698 62.6646Q82.3215 63.0422 81.904 63.6096Q80.656 65.3056 80.656 68.0256C80.656 69.9883 81.0987 71.4123 81.984 72.2976ZM98.3309 73.0298Q99.1594 72.6196 99.8097 71.8496C100.738 70.7403 101.202 69.359 101.202 67.7056C101.202 66.0416 100.738 64.6603 99.8097 63.5616Q99.1615 62.7853 98.3322 62.3747Q97.4011 61.9136 96.2417 61.9136C94.7697 61.9136 93.5697 62.4683 92.6417 63.5776Q92.3419 63.9326 92.1066 64.3263Q91.2497 65.7599 91.2497 67.7056Q91.2497 69.7279 92.153 71.1935Q92.3646 71.5368 92.6257 71.8496C93.5431 72.9483 94.7377 73.4976 96.2097 73.4976Q97.3861 73.4976 98.3309 73.0298ZM70.6072 71.3536L70.6072 73.3056L78.8952 73.3056L78.8952 71.1776L74.0152 71.1776L75.8392 69.7696C76.5859 69.1936 77.1459 68.7243 77.5192 68.3616C77.8926 67.9883 78.1966 67.5616 78.4312 67.0816Q78.7832 66.3456 78.7832 65.4336C78.7832 64.3776 78.4312 63.535 77.7272 62.9056C77.0232 62.2656 76.0899 61.9456 74.9272 61.9456Q73.5032 61.9456 72.5592 62.5056C71.9406 62.879 71.3379 63.4656 70.7512 64.2656L72.4792 65.6576C72.9166 65.1136 73.3006 64.7296 73.6312 64.5056C73.9726 64.271 74.3512 64.1536 74.7672 64.1536Q75.31 64.1536 75.6858 64.4041Q75.7752 64.4638 75.8552 64.5376C76.1326 64.7936 76.2712 65.151 76.2712 65.6096C76.2712 66.0576 76.1326 66.4683 75.8552 66.8416C75.5779 67.2043 75.0712 67.6896 74.3352 68.2976L70.6072 71.3536ZM64.0395 64.1056L64.0395 66.2656C63.6128 66.1163 63.3195 65.9563 63.1595 65.7856C63.0102 65.6043 62.9355 65.3856 62.9355 65.1296Q62.9355 64.8059 63.0849 64.5817Q63.3416 64.1966 64.0395 64.1056ZM96.2417 71.2736C95.5057 71.2736 94.9084 70.9376 94.4497 70.2656C94.0017 69.5936 93.7777 68.7403 93.7777 67.7056C93.7777 66.6603 94.0017 65.807 94.4497 65.1456C94.8977 64.4736 95.4844 64.1376 96.2097 64.1376C96.9351 64.1376 97.5271 64.479 97.9857 65.1616C98.4444 65.8336 98.6737 66.6816 98.6737 67.7056C98.6737 68.751 98.4497 69.6096 98.0017 70.2816C97.5644 70.943 96.9777 71.2736 96.2417 71.2736ZM51.5516 73.0045Q52.1568 72.6982 52.6656 72.2016C53.5616 71.3376 54.0096 70.2816 54.0096 69.0336C54.0096 67.775 53.567 66.719 52.6816 65.8656Q52.1904 65.3804 51.6049 65.0768Q50.6268 64.5696 49.3856 64.5696Q48.1798 64.5696 47.2104 65.0483Q46.5848 65.3573 46.0576 65.8656Q45.413 66.4947 45.0813 67.2595Q44.7296 68.0703 44.7296 69.0336Q44.7296 70.0522 45.1115 70.8984Q45.4374 71.6208 46.0416 72.2176Q46.5341 72.6923 47.1169 72.991Q48.1054 73.4976 49.3536 73.4976Q50.5774 73.4976 51.5516 73.0045ZM36.1131 73.3056L41.4891 73.3056L41.4891 75.3216L43.5371 75.3216L43.8251 71.2256L42.6571 71.2256L42.6571 64.7296L35.6491 64.7296L35.6491 65.4656Q35.6491 69.4496 34.8171 71.2256L33.8891 71.2256L33.8891 75.3216L35.9371 75.3216L36.1131 73.3056ZM51.0016 70.7296C50.5963 71.1776 50.0576 71.4016 49.3856 71.4016Q48.8056 71.4016 48.346 71.1665Q48.0194 70.9994 47.7536 70.7136C47.3376 70.2443 47.1296 69.6843 47.1296 69.0336Q47.1296 68.3261 47.4291 67.7842Q47.5563 67.554 47.7376 67.3536C48.143 66.895 48.6816 66.6656 49.3536 66.6656C50.0149 66.6656 50.5536 66.9003 50.9696 67.3696Q51.2444 67.665 51.4012 68.0134Q51.6096 68.4766 51.6096 69.0336C51.6096 69.7056 51.407 70.271 51.0016 70.7296ZM40.2251 71.2256L37.2971 71.2256Q37.9051 69.7696 37.9371 67.0016L37.9371 66.8096L40.2251 66.8096L40.2251 71.2256ZM83.7605 70.9755Q83.7276 70.9494 83.696 70.9216C83.344 70.6016 83.168 70.2016 83.168 69.7216C83.168 69.2203 83.3387 68.8203 83.68 68.5216C84.0213 68.223 84.4907 68.0736 85.088 68.0736Q85.9304 68.0736 86.4475 68.4837Q86.4804 68.5098 86.512 68.5376C86.864 68.8363 87.04 69.2256 87.04 69.7056C87.04 70.207 86.8693 70.6123 86.528 70.9216C86.1867 71.231 85.7173 71.3856 85.12 71.3856Q84.2776 71.3856 83.7605 70.9755ZM66.6795 70.2336C66.6795 70.8203 66.3008 71.1723 65.5435 71.2896L65.5435 69.0496C65.9702 69.2096 66.2635 69.3803 66.4235 69.5616C66.5942 69.7323 66.6795 69.9563 66.6795 70.2336Z" fill="#303030" fill-opacity="1.000000" fill-rule="evenodd"/>
	<path id="Доход" d="M47.6019 53.7896L47.6019 57.7796L49.5479 57.7796L49.6879 55.7356L55.8199 55.7356L55.8199 57.7796L57.6259 57.7796L57.9059 53.7896L56.7299 53.7896L56.7299 45.9356L49.6039 45.9356L49.6039 47.0836Q49.6039 49.4916 49.3519 50.9756C49.1839 51.965 48.9086 52.903 48.5259 53.7896L47.6019 53.7896ZM51.6759 47.8816L54.5739 47.8816L54.5739 53.7896L50.7939 53.7896C51.3819 52.3616 51.6759 50.7236 51.6759 48.8756L51.6759 47.8816ZM62.8694 55.9036C64.0267 55.9036 64.9927 55.5256 65.7673 54.7696C66.5514 54.0136 66.9434 53.0896 66.9434 51.9976Q66.9434 51.1087 66.6069 50.3738Q66.3181 49.7429 65.7814 49.2256C65.016 48.4696 64.0547 48.0916 62.8974 48.0916Q61.8423 48.0916 60.994 48.5105Q60.4466 48.7808 59.9854 49.2256C59.2107 49.9816 58.8233 50.9056 58.8233 51.9976Q58.8234 52.8888 59.1575 53.6293Q59.4427 54.2614 59.9714 54.7836C60.746 55.5303 61.712 55.9036 62.8694 55.9036ZM80.342 55.9036C81.4993 55.9036 82.4653 55.5256 83.24 54.7696C84.024 54.0136 84.416 53.0896 84.416 51.9976Q84.416 51.1087 84.0795 50.3738Q83.7907 49.7429 83.254 49.2256C82.4887 48.4696 81.5273 48.0916 80.37 48.0916C79.2127 48.0916 78.242 48.4696 77.458 49.2256Q76.894 49.7761 76.6037 50.4453Q76.296 51.1547 76.296 51.9976C76.296 53.099 76.6787 54.0276 77.444 54.7836Q77.875 55.199 78.3849 55.4603Q79.2498 55.9036 80.342 55.9036ZM70.4862 51.9276L67.8542 55.7356L70.0802 55.7356L71.5922 53.3976L73.1042 55.7356L75.3862 55.7356L72.7402 51.8856L75.2742 48.2316L73.0482 48.2316L71.6342 50.4156L70.2342 48.2316L67.9522 48.2316L70.4862 51.9276ZM87.0769 55.7356L91.7809 55.7356L91.7809 57.4996L93.5729 57.4996L93.8249 53.9156L92.8029 53.9156L92.8029 48.2316L86.6709 48.2316L86.6709 48.8756C86.6709 51.1996 86.4282 52.8796 85.9429 53.9156L85.1309 53.9156L85.1309 57.4996L86.9229 57.4996L87.0769 55.7356ZM64.3114 53.4816C63.9567 53.8736 63.4854 54.0696 62.8974 54.0696Q62.3899 54.0696 61.9877 53.8638Q61.7019 53.7177 61.4694 53.4676C61.1054 53.057 60.9234 52.567 60.9234 51.9976Q60.9234 51.3786 61.1854 50.9044Q61.2967 50.7029 61.4554 50.5276C61.81 50.1263 62.2813 49.9256 62.8694 49.9256C63.448 49.9256 63.9193 50.131 64.2834 50.5416C64.6567 50.943 64.8434 51.4283 64.8434 51.9976C64.8434 52.5856 64.666 53.0803 64.3114 53.4816ZM81.784 53.4816C81.4293 53.8736 80.958 54.0696 80.37 54.0696C79.7913 54.0696 79.3153 53.869 78.942 53.4676C78.578 53.057 78.396 52.567 78.396 51.9976Q78.396 51.3786 78.6581 50.9044Q78.7694 50.7029 78.928 50.5276C79.2827 50.1263 79.754 49.9256 80.342 49.9256C80.9207 49.9256 81.392 50.131 81.756 50.5416C82.1293 50.943 82.316 51.4283 82.316 51.9976C82.316 52.5856 82.1387 53.0803 81.784 53.4816ZM90.6749 53.9156L88.1129 53.9156C88.4675 53.0663 88.6542 51.8343 88.6729 50.2196L88.6729 50.0516L90.6749 50.0516L90.6749 53.9156Z" fill="#303030" fill-opacity="1.000000" fill-rule="evenodd"/>
</svg>
