<svg width="53" height="40" viewBox="0 0 53 40" fill="none" xmlns="http://www.w3.org/2000/svg">
<path d="M39.9775 20C39.9775 30.9344 31.0739 39.8 20.0888 39.8C9.10367 39.8 0.2 30.9344 0.2 20C0.2 9.0656 9.10367 0.2 20.0888 0.2C31.0739 0.2 39.9775 9.0656 39.9775 20Z" fill="#F4F7FA" stroke="black" stroke-width="0.4"/>
<path d="M36.5582 19.9999C36.5582 29.0542 29.1855 36.3957 20.0888 36.3957C10.9922 36.3957 3.61943 29.0542 3.61943 19.9999C3.61943 10.9456 10.9922 3.60417 20.0888 3.60417C29.1855 3.60417 36.5582 10.9456 36.5582 19.9999Z" stroke="black" stroke-opacity="0.3" stroke-width="0.4"/>
<path d="M52.7998 20C52.7998 30.9344 43.8961 39.8 32.911 39.8C21.9259 39.8 13.0223 30.9344 13.0223 20C13.0223 9.0656 21.9259 0.2 32.911 0.2C43.8961 0.2 52.7998 9.0656 52.7998 20Z" fill="#F4F7FA" stroke="black" stroke-width="0.4"/>
<path d="M49.8084 19.9999C49.8084 29.0542 42.4356 36.3957 33.339 36.3957C24.2423 36.3957 16.8696 29.0542 16.8696 19.9999C16.8696 10.9456 24.2423 3.60417 33.339 3.60417C42.4356 3.60417 49.8084 10.9456 49.8084 19.9999Z" stroke="black" stroke-width="0.4"/>
<path d="M33.0217 29.471V27.2973C31.1334 27.1362 29.3987 26.3531 27.8178 24.9478L28.5424 24.0915C29.9623 25.4236 31.4701 26.1555 33.0656 26.2872V20.0513C31.4115 19.6853 30.2185 19.1803 29.4866 18.5362C28.7693 17.8921 28.4107 17.0139 28.4107 15.9013C28.4107 14.8035 28.8425 13.8813 29.7062 13.1347C30.5845 12.3735 31.6896 11.9783 33.0217 11.949V10.6755H34.0757V11.9929C35.5688 12.11 36.9814 12.7102 38.3135 13.7934L37.5889 14.6498C36.5056 13.6983 35.3199 13.142 34.0318 12.981V19.151C35.7005 19.5024 36.9082 20.0074 37.6548 20.6661C38.4013 21.3248 38.7746 22.1958 38.7746 23.279C38.7746 24.4208 38.3354 25.365 37.4571 26.1116C36.5935 26.8581 35.4663 27.2607 34.0757 27.3192V29.471H33.0217ZM34.0318 26.3311C35.115 26.3019 35.986 26.0091 36.6447 25.4528C37.3181 24.8819 37.6548 24.172 37.6548 23.323C37.6548 22.5325 37.3986 21.9104 36.8862 21.4566C36.3739 20.9881 35.4224 20.5929 34.0318 20.2709V26.3311ZM33.0656 18.9315V12.9371C32.0117 12.9517 31.1553 13.2372 30.4966 13.7934C29.8525 14.3497 29.5305 15.0377 29.5305 15.8574C29.5305 16.6186 29.7793 17.2407 30.277 17.7238C30.7747 18.1922 31.7043 18.5948 33.0656 18.9315Z" fill="url(#paint0_linear_11814_244)"/>
<defs>
<linearGradient id="paint0_linear_11814_244" x1="33.3391" y1="15.3192" x2="33.3391" y2="24.6809" gradientUnits="userSpaceOnUse">
<stop stop-color="#4614E8"/>
<stop offset="1" stop-color="#BCA7FF"/>
</linearGradient>
</defs>
</svg>
